
<svg width="14px" height="14px" viewBox="0 0 14 14" version="1.1" xmlns="http://www.w3.org/2000/svg" xmlns:xlink="http://www.w3.org/1999/xlink">
    <g id="控件" stroke="none" stroke-width="1" fill="none" fill-rule="evenodd">
        <g id="编组-6" transform="translate(-593.000000, -13.000000)" fill="#FFFFFF" fill-rule="nonzero" stroke="#FFFFFF">
            <g id="编组-8" transform="translate(568.000000, 12.000000)">
                <g id="关闭" transform="translate(24.000000, 0.000000)">
                    <path d="M13.4295,3.025 C13.5557934,2.89870661 13.6051166,2.71462999 13.55889,2.54211002 C13.5126634,2.36959004 13.37791,2.2348366 13.20539,2.18861001 C13.03287,2.14238343 12.8487934,2.19170661 12.7225,2.318 L7.9005,7.1445 L3.078,2.3175 C2.95170661,2.19120661 2.76762999,2.14188343 2.59511002,2.18811001 C2.42259004,2.2343366 2.2878366,2.36909004 2.24161001,2.54161002 C2.19538343,2.71412999 2.24470661,2.89820661 2.371,3.0245 L7.1935,7.851 L2.371,12.6775 C2.24470661,12.8037934 2.19538343,12.98787 2.24161001,13.16039 C2.2878366,13.33291 2.42259004,13.4676634 2.59511002,13.51389 C2.76762999,13.5601166 2.95170661,13.5107934 3.078,13.3845 L7.9005,8.558 L12.7225,13.3845 C12.8487934,13.5107934 13.03287,13.5601166 13.20539,13.51389 C13.37791,13.4676634 13.5126634,13.33291 13.55889,13.16039 C13.6051166,12.98787 13.5557934,12.8037934 13.4295,12.6775 L8.607,7.8515 L13.4295,3.025 Z" id="路径备份"></path>
                </g>
            </g>
        </g>
    </g>
</svg>